<?xml version="1.0" encoding="UTF-8" standalone="no"?>
<!DOCTYPE svg PUBLIC "-//W3C//DTD SVG 1.1//EN" "http://www.w3.org/Graphics/SVG/1.1/DTD/svg11.dtd">
<svg width="100%" height="100%" viewBox="0 0 3508 2481" version="1.1" xmlns="http://www.w3.org/2000/svg" xmlns:xlink="http://www.w3.org/1999/xlink" xml:space="preserve" xmlns:serif="http://www.serif.com/" style="fill-rule:evenodd;clip-rule:evenodd;stroke-linejoin:round;stroke-miterlimit:2;">
    <g>
        <g transform="matrix(1,0,0,1.1376,-55.6569,46.3138)">
            <path d="M490.883,305.371C490.883,295.202 481.492,286.946 469.924,286.946L202.892,286.946C191.324,286.946 181.932,295.202 181.932,305.371L181.932,454.702C181.932,464.87 191.324,473.126 202.892,473.126L469.924,473.126C481.492,473.126 490.883,464.87 490.883,454.702L490.883,305.371Z" style="fill:rgb(235,235,235);"/>
        </g>
        <g transform="matrix(1,0,0,1,-16.5069,36.4502)">
            <text x="229.058px" y="463.659px" style="font-family:'AtkinsonHyperlegible-Regular', 'Atkinson Hyperlegible';font-size:66.667px;">D<tspan x="272.058px " y="463.659px ">a</tspan>ta</text>
        </g>
        <g transform="matrix(1,0,0,1.1376,347.533,46.3138)">
            <path d="M490.883,305.371C490.883,295.202 481.492,286.946 469.924,286.946L202.892,286.946C191.324,286.946 181.932,295.202 181.932,305.371L181.932,454.702C181.932,464.87 191.324,473.126 202.892,473.126L469.924,473.126C481.492,473.126 490.883,464.87 490.883,454.702L490.883,305.371Z" style="fill:rgb(235,235,235);"/>
        </g>
        <g transform="matrix(1,0,0,1,324.142,36.4502)">
            <text x="241.666px" y="463.659px" style="font-family:'AtkinsonHyperlegible-Regular', 'Atkinson Hyperlegible';font-size:66.667px;">Sources</text>
        </g>
        <g transform="matrix(1,0,0,1.1376,750.838,45.5138)">
            <path d="M490.883,305.371C490.883,295.202 481.492,286.946 469.924,286.946L202.892,286.946C191.324,286.946 181.932,295.202 181.932,305.371L181.932,454.702C181.932,464.87 191.324,473.126 202.892,473.126L469.924,473.126C481.492,473.126 490.883,464.87 490.883,454.702L490.883,305.371Z" style="fill:rgb(235,235,235);"/>
        </g>
        <g transform="matrix(1,0,0,1,727.446,35.6502)">
            <text x="232.033px" y="463.659px" style="font-family:'AtkinsonHyperlegible-Regular', 'Atkinson Hyperlegible';font-size:66.667px;">Features</text>
        </g>
        <g transform="matrix(1,0,0,1.1376,1153.87,46.3138)">
            <path d="M490.883,305.371C490.883,295.202 481.492,286.946 469.924,286.946L202.892,286.946C191.324,286.946 181.932,295.202 181.932,305.371L181.932,454.702C181.932,464.87 191.324,473.126 202.892,473.126L469.924,473.126C481.492,473.126 490.883,464.87 490.883,454.702L490.883,305.371Z" style="fill:rgb(235,235,235);"/>
        </g>
        <g transform="matrix(1,0,0,1,1130.48,36.4502)">
            <text x="249.799px" y="463.659px" style="font-family:'AtkinsonHyperlegible-Regular', 'Atkinson Hyperlegible';font-size:66.667px;">Inverse</text>
        </g>
        <g transform="matrix(1,0,0,1.1376,1556.76,46.3138)">
            <path d="M490.883,305.371C490.883,295.202 481.492,286.946 469.924,286.946L202.892,286.946C191.324,286.946 181.932,295.202 181.932,305.371L181.932,454.702C181.932,464.87 191.324,473.126 202.892,473.126L469.924,473.126C481.492,473.126 490.883,464.87 490.883,454.702L490.883,305.371Z" style="fill:rgb(235,235,235);"/>
        </g>
        <g transform="matrix(1,0,0,1,1533.36,36.4502)">
            <text x="259.033px" y="463.659px" style="font-family:'AtkinsonHyperlegible-Regular', 'Atkinson Hyperlegible';font-size:66.667px;">Output</text>
        </g>
        <g transform="matrix(1,0,0,1.1376,1960.21,-98.3683)">
            <path d="M490.883,305.371C490.883,295.202 481.492,286.946 469.924,286.946L202.892,286.946C191.324,286.946 181.932,295.202 181.932,305.371L181.932,454.702C181.932,464.87 191.324,473.126 202.892,473.126L469.924,473.126C481.492,473.126 490.883,464.87 490.883,454.702L490.883,305.371Z" style="fill:rgb(235,235,235);"/>
        </g>
        <g transform="matrix(1,0,0,1,1936.82,-108.232)">
            <text x="282.099px" y="463.659px" style="font-family:'AtkinsonHyperlegible-Regular', 'Atkinson Hyperlegible';font-size:66.667px;">Write</text>
        </g>
        <g transform="matrix(1,0,0,1.1376,1960.21,184.409)">
            <path d="M490.883,305.371C490.883,295.202 481.492,286.946 469.924,286.946L202.892,286.946C191.324,286.946 181.932,295.202 181.932,305.371L181.932,454.702C181.932,464.87 191.324,473.126 202.892,473.126L469.924,473.126C481.492,473.126 490.883,464.87 490.883,454.702L490.883,305.371Z" style="fill:rgb(235,235,235);"/>
        </g>
        <g transform="matrix(1,0,0,1,1936.82,174.545)">
            <text x="290.799px" y="463.659px" style="font-family:'AtkinsonHyperlegible-Regular', 'Atkinson Hyperlegible';font-size:66.667px;">View</text>
        </g>
        <g transform="matrix(0.823272,0,0,1,79.2625,-16.0979)">
            <path d="M448.5,500.375L448.5,489.106L501.7,489.106L501.7,478.643L529.466,494.741L501.7,510.838L501.7,500.375L448.5,500.375Z" style="fill:rgb(108,145,213);"/>
        </g>
        <g transform="matrix(0.823272,0,0,1,484.876,-16.0979)">
            <path d="M448.5,500.375L448.5,489.106L501.7,489.106L501.7,478.643L529.466,494.741L501.7,510.838L501.7,500.375L448.5,500.375Z" style="fill:rgb(108,145,213);"/>
        </g>
        <g transform="matrix(0.823272,0,0,1,886.527,-16.0979)">
            <path d="M448.5,500.375L448.5,489.106L501.7,489.106L501.7,478.643L529.466,494.741L501.7,510.838L501.7,500.375L448.5,500.375Z" style="fill:rgb(108,145,213);"/>
        </g>
        <g transform="matrix(0.823272,0,0,1,1290.14,-16.8979)">
            <path d="M448.5,500.375L448.5,489.106L501.7,489.106L501.7,478.643L529.466,494.741L501.7,510.838L501.7,500.375L448.5,500.375Z" style="fill:rgb(108,145,213);"/>
        </g>
        <g transform="matrix(0.861338,-0.497294,0.5,0.866025,1429.49,266.939)">
            <path d="M448.5,500.375L448.5,489.106L506.482,489.106L506.482,478.643L529.466,494.741L506.482,510.838L506.482,500.375L448.5,500.375Z" style="fill:rgb(108,145,213);"/>
        </g>
        <g transform="matrix(0.861338,0.497294,-0.5,0.866025,1924.23,-179.392)">
            <path d="M448.5,500.375L448.5,489.106L506.482,489.106L506.482,478.643L529.466,494.741L506.482,510.838L506.482,500.375L448.5,500.375Z" style="fill:rgb(108,145,213);"/>
        </g>
        <g transform="matrix(1,0,0,0.939618,0,28.5006)">
            <rect x="2060.35" y="467.223" width="5.438" height="10.018" style="fill:rgb(108,145,213);"/>
        </g>
    </g>
</svg>
